<svg width="50" height="50" viewBox="0 0 50 50" fill="none" xmlns="http://www.w3.org/2000/svg">
<rect width="50" height="50" rx="25" fill="#8AFF2F"/>
<path fill-rule="evenodd" clip-rule="evenodd" d="M28.5371 13.7094C24.9939 13.6841 21.4519 13.7136 17.9111 13.7979C18.0698 13.7263 18.2469 13.682 18.4424 13.6651C21.8223 13.5915 25.1872 13.6063 28.5371 13.7094Z" fill="#99999D"/>
<path fill-rule="evenodd" clip-rule="evenodd" d="M28.5336 13.7072C28.968 14.0082 29.3665 14.3624 29.729 14.7698C30.4965 15.5963 31.2639 16.4228 32.0313 17.2492C32.0741 17.3332 32.0888 17.4217 32.0756 17.5149C27.5595 17.5001 23.0434 17.5149 18.5275 17.5592C16.0731 18.3304 14.9072 19.9981 15.0298 22.5622C15.4192 24.575 16.6146 25.8 18.616 26.237C22.4532 26.2665 26.2904 26.2961 30.1275 26.3256C31.5419 26.9382 31.8814 27.927 31.1458 29.292C30.8568 29.7099 30.4583 29.9608 29.9504 30.0447C26.0837 30.1037 22.2171 30.1037 18.3504 30.0447C14.6249 29.3244 12.2784 27.1254 11.3107 23.4477C10.738 19.0062 12.4943 15.8922 16.5794 14.1057C17.0084 13.9402 17.4512 13.8369 17.9076 13.7958C21.4484 13.7115 24.9904 13.6819 28.5336 13.7072Z" fill="#060606"/>
<path fill-rule="evenodd" clip-rule="evenodd" d="M19.0594 19.995C22.9262 19.9803 26.7929 19.995 30.6594 20.0393C35.125 20.8716 37.5749 23.5429 38.0091 28.0531C37.8644 31.7506 36.1229 34.3628 32.7846 35.8897C32.312 36.0079 31.8397 36.1261 31.3678 36.2439C27.7396 36.3874 24.1091 36.4169 20.4762 36.3325C19.3056 35.1473 18.184 33.9224 17.1113 32.6577C21.45 32.5839 25.7889 32.5396 30.1281 32.5248C32.9137 31.9814 34.2567 30.2842 34.1572 27.4332C33.7845 25.6144 32.7072 24.4485 30.9251 23.9355C26.8794 23.8478 22.8356 23.7593 18.7938 23.6699C17.8165 23.1297 17.4771 22.318 17.7755 21.2347C18.0297 20.6303 18.4577 20.2171 19.0594 19.995Z" fill="#060606"/>
</svg>
